name C:\Users\u0101727\Documents\MyRepositories\upper-imu-dc\Results\main_tracking\Case_15\kinematics.mot
datacolumns 10
datarows 42
range 7.88000000 8.29000000
endheader 
time	clav_prot	clav_elev	scapula_abduction	scapula_elevation	scapula_upward_rot	scapula_winging	plane_elv	shoulder_elv	axial_rot	
          7.88000000	        -40.51324613	          7.50579208	        -15.28141437	         -3.55959869	         55.09826903	        -10.80315602	         26.31608462	         78.40118128	        -12.03895735	
          7.89000000	        -40.40068400	          7.40867845	        -15.68308439	         -3.58226920	         54.33243195	        -10.66475986	         26.52635285	         78.23883370	        -12.25051479	
          7.90000000	        -40.28798105	          7.30577067	        -16.09093118	         -3.60493907	         53.55558742	        -10.51921071	         26.73877247	         78.07188194	        -12.42923153	
          7.91000000	        -40.17586165	          7.19628441	        -16.50617271	         -3.62802811	         52.76715164	        -10.36641625	         26.95377742	         77.90184327	        -12.55257939	
          7.92000000	        -40.06482408	          7.07948373	        -16.92816124	         -3.65201224	         51.96842563	        -10.20632722	         27.16994032	         77.72949891	        -12.60355874	
          7.93000000	        -39.95498555	          6.95496914	        -17.35442234	         -3.67724410	         51.16237967	        -10.03899015	         27.38384833	         77.55498512	        -12.57142744	
          7.94000000	        -39.84609071	          6.82284889	        -17.78114761	         -3.70383947	         50.35314954	         -9.86461384	         27.59052943	         77.37799679	        -12.45128698	
          7.95000000	        -39.73765511	          6.68379443	        -18.20384940	         -3.73163949	         49.54554567	         -9.68364952	         27.78415978	         77.19792364	        -12.24348317	
          7.96000000	        -39.62919934	          6.53907561	        -18.61803772	         -3.76018950	         48.74469939	         -9.49690227	         27.95887454	         77.01381974	        -11.95322562	
          7.97000000	        -39.52053523	          6.39066369	        -19.01991339	         -3.78867247	         47.95581349	         -9.30568142	         28.10962504	         76.82421366	        -11.59027124	
          7.98000000	        -39.41204651	          6.24137753	        -19.40702626	         -3.81580704	         47.18395715	         -9.11195046	         28.23300308	         76.62685931	        -11.16841507	
          7.99000000	        -39.30487513	          6.09493388	        -19.77872938	         -3.83979873	         46.43388235	         -8.91838957	         28.32785106	         76.41859034	        -10.70469168	
          8.00000000	        -39.20092417	          5.95574767	        -20.13623699	         -3.85844583	         45.70986195	         -8.72828343	         28.39544473	         76.19543481	        -10.21831499	
          8.01000000	        -39.10262975	          5.82843498	        -20.48219801	         -3.86943235	         45.01554858	         -8.54520121	         28.43911100	         75.95305973	         -9.72942524	
          8.02000000	        -39.01252747	          5.71711685	        -20.81987013	         -3.87074390	         44.35384205	         -8.37251673	         28.46331034	         75.68748709	         -9.25769764	
          8.03000000	        -38.93272604	          5.62471897	        -21.15214677	         -3.86108106	         43.72675559	         -8.21288924	         28.47242692	         75.39589988	         -8.82085534	
          8.04000000	        -38.86445081	          5.55246713	        -21.48075512	         -3.84014474	         43.13528769	         -8.06784964	         28.46964303	         75.07730384	         -8.43316852	
          8.05000000	        -38.80779566	          5.49970583	        -21.80586762	         -3.80871758	         42.57932292	         -7.93760146	         28.45623575	         74.73285941	         -8.10410623	
          8.06000000	        -38.76174363	          5.46406699	        -22.12620070	         -3.76853115	         42.05760154	         -7.82107553	         28.43145994	         74.36580281	         -7.83741226	
          8.07000000	        -38.72442961	          5.44192491	        -22.43950461	         -3.72196737	         41.56780300	         -7.71620845	         28.39297848	         73.98098507	         -7.63091476	
          8.08000000	        -38.69355559	          5.42901259	        -22.74324851	         -3.67167868	         41.10676397	         -7.62036392	         28.33765165	         73.58415166	         -7.47726226	
          8.09000000	        -38.66684151	          5.42104669	        -23.03528629	         -3.62022297	         40.67080544	         -7.53079008	         28.26242896	         73.18114690	         -7.36554214	
          8.10000000	        -38.64239891	          5.41422003	        -23.31432385	         -3.56979629	         40.25610924	         -7.44500758	         28.16508840	         72.77723596	         -7.28351858	
          8.11000000	        -38.61894958	          5.40548200	        -23.58007591	         -3.52210637	         39.85909278	         -7.36106116	         28.04463625	         72.37666427	         -7.22016683	
          8.12000000	        -38.59587110	          5.39262524	        -23.83309313	         -3.47837075	         39.47677653	         -7.27763303	         27.90130874	         71.98243950	         -7.16825746	
          8.13000000	        -38.57310821	          5.37427672	        -24.07434286	         -3.43937568	         39.10715906	         -7.19407016	         27.73625851	         71.59622105	         -7.12676895	
          8.14000000	        -38.55101490	          5.34990168	        -24.30470419	         -3.40552120	         38.74957326	         -7.11038424	         27.55109755	         71.21821353	         -7.10276361	
          8.15000000	        -38.53018058	          5.31986602	        -24.52454705	         -3.37681115	         38.40493191	         -7.02724518	         27.34746705	         70.84705677	         -7.11218482	
          8.16000000	        -38.51126677	          5.28551308	        -24.73350280	         -3.35280327	         38.07575212	         -6.94594449	         27.12673826	         70.47979396	         -7.17905725	
          8.17000000	        -38.49486370	          5.24914899	        -24.93044580	         -3.33258206	         37.76589731	         -6.86828667	         26.88987741	         70.11201615	         -7.33285419	
          8.18000000	        -38.48137535	          5.21383532	        -25.11365917	         -3.31482194	         37.48003394	         -6.79637835	         26.63746856	         69.73824873	         -7.60414557	
          8.19000000	        -38.47095338	          5.18294270	        -25.28117457	         -3.29797718	         37.22283181	         -6.73231329	         26.36990353	         69.35259933	         -8.01890821	
          8.20000000	        -38.46350921	          5.15952074	        -25.43131155	         -3.28056889	         36.99795858	         -6.67779080	         26.08777214	         68.94962372	         -8.59212945	
          8.21000000	        -38.45882274	          5.14564328	        -25.56342357	         -3.26147670	         36.80697655	         -6.63374490	         25.79247330	         68.52528311	         -9.32166546	
          8.22000000	        -38.45672879	          5.14194601	        -25.67874778	         -3.24011552	         36.64835010	         -6.60008434	         25.48697223	         68.07778213	        -10.18370190	
          8.23000000	        -38.45730339	          5.14753217	        -25.78107351	         -3.21641872	         36.51687479	         -6.57562612	         25.17645134	         67.60804385	        -11.13141295	
          8.24000000	        -38.46092614	          5.16027798	        -25.87680574	         -3.19064866	         36.40385850	         -6.55824393	         24.86843044	         67.11963392	        -12.09821718	
          8.25000000	        -38.46811556	          5.17737878	        -25.97406660	         -3.16316690	         36.29824001	         -6.54517419	         24.57195046	         66.61809860	        -13.00611940	
          8.26000000	        -38.47914582	          5.19586485	        -26.08087407	         -3.13432785	         36.18847401	         -6.53336766	         24.29577391	         66.10990033	        -13.77793648	
          8.27000000	        -38.49359599	          5.21289032	        -26.20300047	         -3.10455461	         36.06459265	         -6.51977949	         24.04612202	         65.60131272	        -14.35039169	
          8.28000000	        -38.51004946	          5.22580669	        -26.34237956	         -3.07450065	         35.91974369	         -6.50156232	         23.82482173	         65.09760445	        -14.68455884	
          8.29000000	        -38.52609904	          5.23220732	        -26.49662506	         -3.04513056	         35.75087394	         -6.47622454	         23.62856480	         64.60257449	        -14.77153729	
